<svg width="424" height="470" viewBox="0 0 424 470" fill="none" xmlns="http://www.w3.org/2000/svg">
<path d="M183.91 109.42C178.17 107.82 172.42 106.24 166.62 104.86C148.28 100.49 129.27 99.47 110.42 100.45C70.5601 102.53 53.1701 123.35 66.9401 142.77C80.7101 162.19 98.1001 182.32 79.2601 201.06C60.4201 219.8 -10.5999 236.44 -3.35992 269.74C3.88008 303.04 67.6401 307.9 62.6401 329.41C57.6401 350.92 25.0001 357.17 40.9001 386.31C56.8001 415.45 115.54 389.78 134.38 405.04C153.22 420.3 163.38 432.79 194.53 437.65C225.68 442.51 248.16 404.35 281.53 389.78C314.9 375.21 348.93 370.35 355.45 336.35C361.97 302.35 299.65 280.15 302.55 245.46C304 228.12 315.86 214.59 325.11 200.73C340.73 177.3 353.61 135.09 319.11 121.28C304.11 115.28 286.89 116.9 271.11 117.28C254.69 117.63 237.66 119.47 221.29 117.67C208.49 116.23 196.2 112.82 183.91 109.42Z" fill="#00B43F"/>
<path opacity="0.7" d="M183.91 109.42C178.17 107.82 172.42 106.24 166.62 104.86C148.28 100.49 129.27 99.47 110.42 100.45C70.5601 102.53 53.1701 123.35 66.9401 142.77C80.7101 162.19 98.1001 182.32 79.2601 201.06C60.4201 219.8 -10.5999 236.44 -3.35992 269.74C3.88008 303.04 67.6401 307.9 62.6401 329.41C57.6401 350.92 25.0001 357.17 40.9001 386.31C56.8001 415.45 115.54 389.78 134.38 405.04C153.22 420.3 163.38 432.79 194.53 437.65C225.68 442.51 248.16 404.35 281.53 389.78C314.9 375.21 348.93 370.35 355.45 336.35C361.97 302.35 299.65 280.15 302.55 245.46C304 228.12 315.86 214.59 325.11 200.73C340.73 177.3 353.61 135.09 319.11 121.28C304.11 115.28 286.89 116.9 271.11 117.28C254.69 117.63 237.66 119.47 221.29 117.67C208.49 116.23 196.2 112.82 183.91 109.42Z" fill="white"/>
<path d="M326.109 317.88C321.618 317.893 317.314 319.683 314.138 322.859C310.962 326.035 309.172 330.339 309.159 334.83C309.159 344.19 326.109 361.83 326.109 361.83C326.109 361.83 343.059 344.15 343.059 334.83C343.046 330.339 341.256 326.035 338.08 322.859C334.904 319.683 330.601 317.893 326.109 317.88ZM326.109 340.88C324.695 340.882 323.312 340.465 322.135 339.681C320.958 338.897 320.04 337.781 319.497 336.475C318.954 335.17 318.811 333.732 319.085 332.345C319.359 330.958 320.038 329.683 321.036 328.681C322.035 327.68 323.308 326.997 324.694 326.719C326.081 326.442 327.519 326.581 328.826 327.12C330.133 327.66 331.251 328.575 332.039 329.749C332.826 330.924 333.247 332.306 333.249 333.72V333.72C333.25 334.659 333.067 335.589 332.709 336.457C332.351 337.325 331.825 338.114 331.162 338.779C330.499 339.444 329.712 339.971 328.845 340.332C327.978 340.692 327.048 340.879 326.109 340.88V340.88Z" fill="#263238"/>
<path d="M326.109 362.37C326.042 362.372 325.975 362.359 325.913 362.333C325.851 362.307 325.795 362.269 325.749 362.22C325.049 361.49 308.659 344.28 308.659 334.83C308.659 330.202 310.498 325.764 313.77 322.491C317.043 319.218 321.481 317.38 326.109 317.38C330.737 317.38 335.176 319.218 338.448 322.491C341.721 325.764 343.559 330.202 343.559 334.83C343.559 344.28 327.169 361.49 326.469 362.22C326.423 362.268 326.367 362.307 326.305 362.332C326.243 362.358 326.176 362.371 326.109 362.37ZM326.109 318.37C321.748 318.375 317.567 320.11 314.483 323.194C311.399 326.278 309.664 330.459 309.659 334.82C309.659 343.12 323.659 358.51 326.109 361.13C328.549 358.51 342.559 343.13 342.559 334.82C342.554 330.46 340.819 326.28 337.735 323.197C334.651 320.115 330.469 318.383 326.109 318.38V318.37ZM326.109 341.37C324.596 341.372 323.117 340.925 321.857 340.086C320.598 339.247 319.616 338.054 319.035 336.657C318.455 335.26 318.301 333.722 318.594 332.237C318.887 330.753 319.614 329.389 320.683 328.318C321.751 327.246 323.113 326.516 324.597 326.219C326.08 325.922 327.619 326.071 329.017 326.648C330.416 327.226 331.612 328.205 332.454 329.462C333.297 330.719 333.747 332.197 333.749 333.71V333.71C333.752 334.715 333.556 335.712 333.174 336.641C332.791 337.571 332.229 338.416 331.519 339.129C330.81 339.841 329.967 340.407 329.038 340.793C328.11 341.179 327.115 341.379 326.109 341.38V341.37ZM326.109 327.08C324.794 327.078 323.508 327.466 322.413 328.195C321.318 328.924 320.464 329.962 319.959 331.176C319.454 332.39 319.32 333.727 319.575 335.018C319.83 336.308 320.461 337.494 321.39 338.425C322.318 339.357 323.502 339.992 324.792 340.25C326.082 340.509 327.419 340.379 328.635 339.878C329.851 339.376 330.891 338.525 331.623 337.433C332.355 336.34 332.747 335.055 332.749 333.74V333.74C332.741 331.983 332.039 330.301 330.794 329.061C329.55 327.82 327.866 327.123 326.109 327.12V327.08Z" fill="#263238"/>
<path d="M116.289 90.58C108.479 86.46 98.1194 85.67 88.5994 88.48C79.0794 91.29 70.5993 97.68 66.3393 105.48C66.0889 105.928 65.9783 106.441 66.022 106.952C66.0657 107.464 66.2615 107.951 66.5843 108.35C66.9071 108.749 67.342 109.042 67.8331 109.192C68.3241 109.342 68.8487 109.341 69.3393 109.19C69.6619 109.097 69.9625 108.94 70.2235 108.728C70.4845 108.517 70.7007 108.256 70.8593 107.96C74.5193 101.32 81.6994 95.88 90.0694 93.42C98.4394 90.96 107.249 91.62 113.909 95.13C114.513 95.4482 115.218 95.5138 115.869 95.3122C116.521 95.1106 117.066 94.6583 117.384 94.055C117.703 93.4516 117.768 92.7465 117.567 92.0948C117.365 91.4431 116.913 90.8982 116.309 90.58V90.58H116.289Z" fill="#263238"/>
<path d="M111.649 99.71C105.255 97.0882 98.1565 96.7318 91.5319 98.6999C84.9072 100.668 79.1547 104.842 75.2292 110.53C74.9379 110.97 74.7894 111.49 74.8037 112.017C74.818 112.545 74.9945 113.056 75.3091 113.479C75.6238 113.903 76.0613 114.22 76.5623 114.387C77.0633 114.553 77.6034 114.561 78.1092 114.41C78.6872 114.258 79.1912 113.903 79.5292 113.41C82.7905 108.738 87.5408 105.31 93.003 103.688C98.4652 102.066 104.316 102.345 109.599 104.48C109.909 104.615 110.243 104.687 110.58 104.693C110.918 104.698 111.254 104.637 111.568 104.514C111.882 104.39 112.169 104.205 112.412 103.97C112.655 103.735 112.85 103.455 112.984 103.145C113.119 102.835 113.191 102.502 113.197 102.164C113.203 101.826 113.142 101.49 113.018 101.176C112.894 100.862 112.709 100.575 112.474 100.332C112.239 100.089 111.959 99.8946 111.649 99.76V99.71Z" fill="#263238"/>
<path d="M106.939 108.77C102.881 107.067 98.3525 106.846 94.1475 108.146C89.9425 109.446 86.3288 112.184 83.9392 115.88C83.5616 116.448 83.4243 117.143 83.5574 117.812C83.6904 118.481 84.083 119.07 84.6492 119.45C85.2148 119.824 85.9036 119.963 86.5699 119.838C87.2362 119.713 87.8277 119.333 88.2192 118.78C89.9451 116.064 92.5778 114.047 95.6498 113.087C98.7217 112.128 102.034 112.288 104.999 113.54C105.632 113.796 106.34 113.79 106.968 113.524C107.597 113.258 108.093 112.753 108.349 112.12C108.605 111.487 108.599 110.779 108.333 110.151C108.067 109.523 107.562 109.026 106.929 108.77V108.77H106.939Z" fill="#263238"/>
<path d="M96.9397 116.78C95.7662 117.121 94.72 117.802 93.9333 118.737C93.1467 119.672 92.6549 120.819 92.5201 122.033C92.3854 123.248 92.6136 124.475 93.1761 125.56C93.7386 126.645 94.6101 127.538 95.6804 128.128C96.7506 128.718 97.9717 128.977 99.1892 128.873C100.407 128.768 101.566 128.306 102.521 127.543C103.475 126.78 104.182 125.751 104.552 124.587C104.922 123.422 104.939 122.174 104.6 121C104.374 120.22 103.997 119.491 103.49 118.857C102.983 118.222 102.356 117.694 101.644 117.302C100.933 116.91 100.151 116.662 99.344 116.573C98.5368 116.483 97.7197 116.554 96.9397 116.78Z" fill="#263238"/>
<path d="M325.689 146.49H280.999C279.243 146.49 277.559 147.187 276.318 148.429C275.077 149.67 274.379 151.354 274.379 153.11V177C274.379 178.756 275.077 180.44 276.318 181.681C277.559 182.923 279.243 183.62 280.999 183.62H282.389C280.999 186.7 278.329 191.39 274.039 194.18C274.039 194.18 283.099 193.55 292.539 183.62H325.669C327.425 183.62 329.109 182.923 330.35 181.681C331.592 180.44 332.289 178.756 332.289 177V153.11C332.289 151.358 331.594 149.677 330.357 148.436C329.12 147.195 327.441 146.495 325.689 146.49Z" fill="#263238"/>
<path d="M274.06 194.68C273.954 194.681 273.85 194.649 273.764 194.588C273.678 194.527 273.613 194.44 273.58 194.34C273.545 194.235 273.546 194.121 273.583 194.017C273.619 193.912 273.688 193.822 273.78 193.76C277.6 191.28 280.12 187.28 281.62 184.12H281C279.115 184.112 277.311 183.359 275.981 182.025C274.65 180.691 273.902 178.884 273.9 177V153.11C273.902 151.227 274.651 149.421 275.981 148.089C277.312 146.756 279.116 146.005 281 146H325.67C326.605 146 327.53 146.184 328.394 146.542C329.258 146.9 330.043 147.424 330.704 148.085C331.365 148.747 331.89 149.531 332.248 150.395C332.605 151.259 332.79 152.185 332.79 153.12V177C332.79 178.888 332.039 180.699 330.704 182.035C329.369 183.37 327.558 184.12 325.67 184.12H292.78C283.36 193.93 274.47 194.65 274.09 194.68H274.06ZM281 147C279.376 147 277.82 147.645 276.672 148.793C275.524 149.94 274.88 151.497 274.88 153.12V177C274.88 178.623 275.524 180.18 276.672 181.327C277.82 182.475 279.376 183.12 281 183.12H282.39C282.474 183.118 282.558 183.138 282.633 183.178C282.707 183.217 282.77 183.276 282.816 183.348C282.861 183.419 282.887 183.501 282.891 183.586C282.895 183.67 282.878 183.754 282.84 183.83C281.297 187.443 278.983 190.675 276.06 193.3C279.23 192.51 285.64 190.16 292.18 183.3C292.225 183.249 292.28 183.209 292.342 183.181C292.404 183.154 292.472 183.14 292.54 183.14H325.67C327.293 183.14 328.849 182.495 329.997 181.347C331.145 180.2 331.79 178.643 331.79 177.02V153.11C331.79 151.487 331.145 149.93 329.997 148.783C328.849 147.635 327.293 146.99 325.67 146.99L281 147Z" fill="#263238"/>
<path d="M295.67 164.2C295.67 163.526 295.47 162.866 295.095 162.305C294.72 161.745 294.188 161.308 293.565 161.05C292.941 160.791 292.256 160.724 291.594 160.856C290.933 160.987 290.325 161.312 289.848 161.789C289.371 162.266 289.047 162.873 288.915 163.535C288.784 164.196 288.851 164.882 289.109 165.505C289.367 166.128 289.804 166.661 290.365 167.035C290.926 167.41 291.585 167.61 292.26 167.61C292.706 167.61 293.148 167.522 293.561 167.351C293.973 167.18 294.348 166.93 294.664 166.614C294.979 166.298 295.23 165.924 295.401 165.511C295.572 165.099 295.66 164.656 295.66 164.21L295.67 164.2Z" fill="white"/>
<path d="M303.849 167.61C305.733 167.61 307.259 166.083 307.259 164.2C307.259 162.317 305.733 160.79 303.849 160.79C301.966 160.79 300.439 162.317 300.439 164.2C300.439 166.083 301.966 167.61 303.849 167.61Z" fill="white"/>
<path d="M318.84 164.2C318.84 163.526 318.64 162.866 318.265 162.305C317.89 161.745 317.358 161.308 316.734 161.05C316.111 160.791 315.426 160.724 314.764 160.856C314.103 160.987 313.495 161.312 313.018 161.789C312.541 162.266 312.217 162.873 312.085 163.535C311.953 164.196 312.021 164.882 312.279 165.505C312.537 166.128 312.974 166.661 313.535 167.035C314.096 167.41 314.755 167.61 315.43 167.61C316.334 167.61 317.201 167.251 317.841 166.611C318.48 165.972 318.84 165.104 318.84 164.2Z" fill="white"/>
<path d="M18.249 294.046C27.961 293.09 35.0594 284.442 34.1037 274.73C33.148 265.018 24.5002 257.92 14.7882 258.876C5.07623 259.831 -2.02214 268.479 -1.06645 278.191C-0.110759 287.903 8.53708 295.001 18.249 294.046Z" fill="#263238"/>
<path d="M16.5392 294.62C12.9455 294.62 9.43248 293.554 6.44444 291.558C3.4564 289.561 1.1275 286.723 -0.247745 283.403C-1.62299 280.083 -1.98281 276.43 -1.28172 272.905C-0.580625 269.381 1.1499 266.143 3.69102 263.602C6.23214 261.061 9.46972 259.33 12.9944 258.629C16.519 257.928 20.1724 258.288 23.4925 259.663C26.8126 261.038 29.6504 263.367 31.647 266.355C33.6435 269.343 34.7091 272.856 34.7091 276.45C34.7105 278.836 34.2414 281.2 33.3287 283.405C32.4161 285.61 31.0777 287.614 29.3902 289.301C27.7027 290.989 25.6991 292.327 23.4941 293.24C21.289 294.152 18.9256 294.621 16.5392 294.62V294.62ZM16.5392 259.28C13.1432 259.28 9.8236 260.287 7.00001 262.174C4.17642 264.06 1.97569 266.742 0.676136 269.879C-0.62342 273.017 -0.963446 276.469 -0.300937 279.8C0.361571 283.13 1.99686 286.19 4.39813 288.591C6.7994 290.992 9.8588 292.628 13.1894 293.29C16.5201 293.953 19.9724 293.613 23.1098 292.313C26.2472 291.013 28.9288 288.813 30.8155 285.989C32.7021 283.166 33.7091 279.846 33.7091 276.45C33.7091 271.896 31.9002 267.529 28.6802 264.309C25.4602 261.089 21.0929 259.28 16.5392 259.28Z" fill="#263238"/>
<path d="M8.56934 265.44L27.6293 276.45L8.56934 287.46V265.44Z" fill="white"/>
<path d="M8.56941 288C8.48086 288.003 8.39354 287.978 8.31941 287.93C8.24244 287.888 8.17844 287.826 8.13437 287.75C8.0903 287.674 8.06783 287.588 8.06941 287.5V265.5C8.06783 265.412 8.0903 265.326 8.13437 265.25C8.17844 265.174 8.24244 265.112 8.31941 265.07C8.39542 265.026 8.48165 265.003 8.56941 265.003C8.65718 265.003 8.7434 265.026 8.81941 265.07L27.8794 276.07C27.993 276.131 28.0777 276.235 28.1152 276.359C28.1526 276.482 28.1398 276.616 28.0794 276.73C28.0344 276.815 27.9647 276.885 27.8794 276.93L8.81941 287.93C8.74477 287.977 8.65781 288.002 8.56941 288V288ZM9.06941 266.35V286.63L26.6294 276.49L9.06941 266.35Z" fill="#263238"/>
<path d="M58.6597 410.33C55.5593 410.39 52.505 409.572 49.8497 407.97C37.2097 400.39 29.7597 389.13 26.6097 374.89C25.8292 371.974 25.7401 368.916 26.3497 365.96C26.8484 363.521 28.0326 361.276 29.7632 359.486C31.4938 357.697 33.699 356.439 36.1197 355.86C37.0129 355.547 37.9927 355.595 38.8514 355.993C39.7102 356.39 40.3803 357.107 40.7197 357.99C41.8979 361.267 42.8994 364.605 43.7197 367.99C43.8604 368.732 43.7376 369.5 43.3724 370.161C43.0073 370.822 42.4227 371.334 41.7197 371.61C40.2412 372.36 38.7222 373.028 37.1697 373.61C36.9724 373.653 36.7854 373.734 36.6196 373.849C36.4538 373.964 36.3124 374.111 36.2037 374.281C36.0949 374.451 36.0209 374.641 35.9859 374.84C35.9509 375.039 35.9556 375.243 35.9997 375.44C36.0308 375.598 36.0882 375.751 36.1697 375.89C39.034 383.924 43.7277 391.182 49.8797 397.09C50.7997 397.98 51.4597 397.83 52.2997 396.91C53.3603 395.699 54.5358 394.594 55.8097 393.61C56.4523 393.058 57.2688 392.751 58.1156 392.742C58.9624 392.733 59.7854 393.022 60.4397 393.56C62.8468 395.341 65.1505 397.257 67.3397 399.3C69.8697 401.78 69.6997 404.16 67.1597 406.63C64.9083 408.911 61.8637 410.237 58.6597 410.33V410.33Z" fill="#263238"/>
<path d="M58.6599 410.83C55.4925 410.871 52.3761 410.03 49.6599 408.4C37.3599 401.03 29.4599 389.79 26.1799 375C25.3744 372.01 25.2853 368.871 25.9199 365.84C26.4328 363.319 27.6532 360.996 29.4384 359.144C31.2236 357.291 33.4996 355.986 35.9999 355.38C37.0151 355.029 38.127 355.088 39.0996 355.544C40.0723 355.999 40.8292 356.816 41.2099 357.82C42.3987 361.124 43.4003 364.493 44.2099 367.91C44.3848 368.761 44.2528 369.647 43.8373 370.41C43.4219 371.173 42.7497 371.765 41.9399 372.08C40.4799 372.82 38.9399 373.51 37.3599 374.13C36.4799 374.47 36.2999 374.87 36.6299 375.77C39.481 383.724 44.1321 390.911 50.2199 396.77C50.4258 397.009 50.7089 397.168 51.0199 397.22C51.2599 397.22 51.5499 397.02 51.9199 396.61C53.0015 395.377 54.2005 394.251 55.4999 393.25C56.2284 392.628 57.1527 392.282 58.1108 392.273C59.0689 392.263 59.9996 392.592 60.7399 393.2L61.6399 393.91C63.7409 395.477 65.7446 397.17 67.6399 398.98C68.2226 399.461 68.7007 400.055 69.0447 400.728C69.3887 401.4 69.5912 402.136 69.6399 402.89C69.5802 403.684 69.3597 404.458 68.9918 405.165C68.624 405.871 68.1164 406.496 67.4999 407C65.1486 409.345 61.9892 410.701 58.6699 410.79L58.6599 410.83ZM37.3499 356.19C36.9781 356.19 36.6081 356.24 36.2499 356.34C33.9166 356.901 31.7915 358.115 30.1232 359.84C28.4549 361.565 27.3125 363.729 26.8299 366.08C26.2422 368.961 26.3312 371.939 27.0899 374.78C30.3099 389.29 38.0899 400.32 50.0899 407.54C52.6615 409.098 55.6236 409.893 58.6299 409.83C61.6966 409.75 64.615 408.494 66.7799 406.32C67.2974 405.901 67.7258 405.382 68.04 404.795C68.3543 404.207 68.5481 403.563 68.6099 402.9C68.5646 402.282 68.3941 401.679 68.1088 401.129C67.8234 400.579 67.4291 400.093 66.9499 399.7C65.0663 397.918 63.0796 396.249 60.9999 394.7L60.0999 393.99C59.5326 393.528 58.8206 393.28 58.089 393.291C57.3574 393.302 56.6531 393.571 56.0999 394.05C54.8494 395.014 53.6972 396.099 52.6599 397.29C52.4726 397.548 52.2335 397.764 51.958 397.924C51.6825 398.084 51.3766 398.185 51.0599 398.22C50.7653 398.219 50.4745 398.153 50.2083 398.027C49.942 397.901 49.707 397.718 49.5199 397.49C43.3224 391.522 38.5891 384.201 35.6899 376.1C35.5628 375.87 35.4824 375.616 35.4533 375.355C35.4243 375.093 35.4471 374.829 35.5204 374.576C35.5938 374.323 35.7164 374.088 35.881 373.882C36.0456 373.677 36.2492 373.506 36.4799 373.38C36.6415 373.296 36.8128 373.232 36.9899 373.19C38.5399 372.58 40.0599 371.91 41.4899 371.19C42.0954 370.971 42.6036 370.544 42.924 369.986C43.2445 369.427 43.3564 368.773 43.2399 368.14C42.4209 364.755 41.4194 361.417 40.2399 358.14C40.0214 357.554 39.6254 357.052 39.1072 356.702C38.5891 356.352 37.9747 356.173 37.3499 356.19Z" fill="#263238"/>
<path d="M76.3991 381.07C76.1891 382.66 76.0691 384.27 75.7491 385.85C75.7178 386.156 75.6266 386.453 75.4804 386.724C75.3343 386.995 75.1362 387.234 74.8975 387.428C74.6588 387.622 74.3842 387.767 74.0893 387.855C73.7944 387.943 73.4851 387.972 73.1791 387.94C73.0339 387.92 72.8902 387.89 72.7491 387.85C71.4391 387.54 70.7491 386.31 71.0491 384.69C71.9777 379.718 70.9792 374.579 68.2564 370.317C65.5336 366.054 61.2906 362.988 56.3891 361.74C55.9383 361.65 55.4965 361.519 55.0691 361.35C54.5452 361.149 54.1127 360.764 53.8531 360.267C53.5934 359.77 53.5244 359.195 53.6591 358.65C53.689 358.367 53.7743 358.094 53.9102 357.844C54.046 357.595 54.2298 357.375 54.4508 357.196C54.6719 357.018 54.926 356.885 55.1985 356.805C55.471 356.725 55.7567 356.699 56.0391 356.73H56.2791C58.4794 357.208 60.6217 357.923 62.6691 358.86C66.7822 360.937 70.2412 364.111 72.6641 368.03C75.087 371.949 76.3796 376.462 76.3991 381.07V381.07Z" fill="#263238"/>
<path d="M73.4392 388.46C73.1564 388.456 72.8748 388.423 72.5992 388.36C71.0292 387.98 70.1892 386.48 70.5292 384.62C71.4363 379.772 70.464 374.761 67.8098 370.604C65.1556 366.447 61.0186 363.457 56.2392 362.24L55.8892 362.16C55.5196 362.092 55.1601 361.978 54.8192 361.82C54.1946 361.572 53.6808 361.106 53.3721 360.509C53.0634 359.912 52.9807 359.223 53.1392 358.57C53.204 358.168 53.35 357.783 53.5684 357.439C53.7867 357.095 54.0728 356.8 54.4092 356.57C54.7025 356.382 55.0323 356.258 55.377 356.206C55.7218 356.154 56.0735 356.176 56.4092 356.27C58.6428 356.758 60.8183 357.482 62.8992 358.43C67.0933 360.533 70.6223 363.757 73.0938 367.745C75.5653 371.733 76.8826 376.328 76.8992 381.02V381.09C76.8392 381.58 76.7792 382.09 76.7292 382.55C76.6092 383.65 76.4792 384.79 76.2492 385.91C76.1916 386.324 76.0512 386.723 75.8365 387.082C75.6218 387.441 75.337 387.753 74.9992 388C74.5385 388.309 73.994 388.47 73.4392 388.46V388.46ZM55.7292 357.23C55.4533 357.226 55.1823 357.302 54.9492 357.45C54.7295 357.603 54.5428 357.799 54.4002 358.026C54.2576 358.253 54.1621 358.506 54.1192 358.77C54.0075 359.207 54.0624 359.67 54.273 360.07C54.4837 360.469 54.8351 360.775 55.2592 360.93C55.5312 361.048 55.8166 361.132 56.1092 361.18L56.4892 361.27C61.5068 362.559 65.8473 365.707 68.6322 370.075C71.417 374.444 72.4383 379.707 71.4892 384.8C71.2392 386.14 71.7492 387.13 72.7992 387.38C73.0594 387.458 73.3328 387.483 73.6027 387.452C73.8726 387.421 74.1334 387.335 74.3692 387.2C74.6016 387.028 74.7973 386.81 74.945 386.561C75.0927 386.313 75.1893 386.037 75.2292 385.75C75.4492 384.68 75.5692 383.56 75.6992 382.47C75.7492 382 75.7992 381.47 75.8692 381.04C75.8439 376.534 74.5697 372.123 72.1883 368.298C69.8069 364.472 66.4114 361.382 62.3792 359.37C60.3668 358.45 58.2614 357.75 56.0992 357.28C55.9763 357.265 55.8521 357.265 55.7292 357.28V357.23Z" fill="#263238"/>
<path d="M68.1096 382.31C68.0296 382.91 67.9496 384.07 67.7196 385.19C67.6814 385.504 67.5812 385.808 67.4251 386.083C67.2689 386.359 67.0598 386.601 66.8097 386.795C66.5597 386.989 66.2737 387.132 65.9682 387.215C65.6626 387.299 65.3437 387.321 65.0296 387.28H64.9396C64.6101 387.217 64.2965 387.089 64.017 386.903C63.7374 386.717 63.4976 386.478 63.3115 386.199C63.1254 385.92 62.9967 385.606 62.9328 385.277C62.869 384.947 62.8713 384.608 62.9396 384.28V384.28C63.1392 382.825 63.1694 381.352 63.0296 379.89C62.0896 374.36 58.8197 370.83 53.4097 369.29C51.6497 368.79 50.7496 367.68 51.0696 366.29C51.3896 364.9 52.7296 364.14 54.5596 364.53C62.2696 366.23 68.1296 373.66 68.1096 382.31Z" fill="#263238"/>
<path d="M65.37 387.8H64.86C64.4712 387.735 64.0991 387.593 63.7649 387.384C63.4308 387.174 63.1412 386.901 62.9128 386.58C62.6843 386.259 62.5214 385.895 62.4334 385.511C62.3454 385.127 62.3341 384.729 62.4 384.34C62.4 384.03 62.45 383.71 62.48 383.39C62.62 382.288 62.62 381.172 62.48 380.07C61.58 374.79 58.48 371.35 53.22 369.86C51.22 369.29 50.15 367.91 50.53 366.27C50.91 364.63 52.53 363.67 54.6 364.14C62.72 365.91 68.6 373.58 68.6 382.4V382.46C68.6073 382.652 68.5837 382.845 68.53 383.03C68.47 383.66 68.37 384.52 68.2 385.37C68.0858 386.042 67.7404 386.652 67.2236 387.096C66.7068 387.54 66.0511 387.789 65.37 387.8ZM53.53 364.93C53.0727 364.886 52.6154 365.013 52.2461 365.286C51.8768 365.56 51.6218 365.96 51.53 366.41C51.17 367.98 52.8 368.62 53.53 368.82C59.18 370.42 62.53 374.12 63.53 379.82C63.68 381.009 63.68 382.211 63.53 383.4C63.53 383.71 63.47 384.02 63.45 384.33C63.3855 384.594 63.3754 384.868 63.4202 385.135C63.4651 385.403 63.564 385.659 63.7109 385.887C63.8578 386.116 64.0496 386.312 64.2746 386.463C64.4997 386.615 64.7533 386.719 65.02 386.77C65.2696 386.808 65.5242 386.797 65.7694 386.737C66.0146 386.677 66.2455 386.569 66.4489 386.419C66.6524 386.27 66.8243 386.081 66.9549 385.865C67.0855 385.649 67.1722 385.41 67.21 385.16C67.21 385.16 67.21 385.11 67.21 385.08C67.37 384.28 67.46 383.44 67.53 382.83C67.5174 382.641 67.5377 382.452 67.59 382.27C67.59 373.94 62.05 366.69 54.4 365.02C54.1139 364.96 53.8223 364.93 53.53 364.93V364.93Z" fill="#263238"/>
<path d="M54.8897 383.14C55.0598 381.773 54.7191 380.391 53.9329 379.26C53.1467 378.128 51.9704 377.327 50.6297 377.01C48.9297 376.49 48.1397 375.29 48.5397 373.85C48.9397 372.41 50.2597 371.85 52.0097 372.3C54.5246 372.975 56.7003 374.557 58.1168 376.742C59.5333 378.927 60.0901 381.559 59.6797 384.13C59.3697 385.89 58.4497 386.7 56.9397 386.54C55.4297 386.38 54.7397 385.35 54.8497 383.54C54.8597 383.41 54.8797 383.27 54.8897 383.14Z" fill="#263238"/>
<path d="M57.2898 387.06H56.8898C55.1398 386.88 54.2198 385.6 54.3598 383.54V383.12C54.5186 381.867 54.2067 380.599 53.4843 379.563C52.7619 378.526 51.6806 377.795 50.4498 377.51C48.4498 376.9 47.5498 375.45 48.0198 373.73C48.4898 372.01 50.0898 371.32 52.0998 371.83C54.7327 372.543 57.0099 374.203 58.4952 376.491C59.9806 378.779 60.5697 381.535 60.1498 384.23C59.8498 386.06 58.8298 387.06 57.2898 387.06ZM50.9098 372.65C50.4824 372.609 50.0544 372.722 49.7038 372.97C49.3532 373.218 49.1033 373.583 48.9998 374C48.6698 375.18 49.3098 376.11 50.7598 376.56C52.2054 376.911 53.4724 377.78 54.3217 379.001C55.1709 380.223 55.5438 381.713 55.3698 383.19V383.59C55.2198 385.87 56.5698 386.01 57.0098 386.06C57.7898 386.14 58.8698 386.06 59.2098 384.06C59.6052 381.611 59.0761 379.102 57.7251 377.021C56.3742 374.94 54.298 373.436 51.8998 372.8C51.5772 372.71 51.2447 372.659 50.9098 372.65V372.65Z" fill="#263238"/>
<path d="M40.8691 372.13C40.7664 372.13 40.6661 372.098 40.582 372.039C40.4979 371.98 40.4341 371.897 40.3991 371.8L39.8191 370.17C39.765 370.049 39.761 369.912 39.8078 369.788C39.8547 369.665 39.9486 369.565 40.0691 369.51C40.1287 369.482 40.1933 369.466 40.2592 369.463C40.325 369.461 40.3907 369.471 40.4523 369.495C40.5139 369.518 40.5702 369.554 40.6177 369.599C40.6653 369.645 40.7032 369.699 40.7291 369.76V369.84L41.3091 371.46C41.351 371.586 41.342 371.723 41.2841 371.843C41.2262 371.962 41.124 372.055 40.9991 372.1C40.9575 372.116 40.9137 372.126 40.8691 372.13V372.13Z" fill="white"/>
<path d="M39.6594 368.71C39.5559 368.713 39.4543 368.682 39.3696 368.623C39.2849 368.564 39.2217 368.478 39.1894 368.38L35.1894 357.1C35.1677 357.034 35.1593 356.965 35.1647 356.896C35.1701 356.827 35.1892 356.76 35.2208 356.699C35.2525 356.637 35.2961 356.583 35.349 356.538C35.402 356.494 35.4633 356.46 35.5294 356.44C35.5943 356.417 35.6633 356.407 35.7321 356.411C35.801 356.415 35.8683 356.433 35.93 356.464C35.9917 356.495 36.0465 356.538 36.0911 356.59C36.1357 356.643 36.1691 356.704 36.1894 356.77L40.1894 368.05C40.2344 368.175 40.2281 368.312 40.1718 368.432C40.1156 368.552 40.014 368.645 39.8894 368.69C39.8148 368.712 39.7366 368.719 39.6594 368.71V368.71Z" fill="white"/>
<path d="M67.9193 406.07C67.7985 406.071 67.6812 406.029 67.5893 405.95L57.8794 397.47C57.8295 397.427 57.7886 397.374 57.7591 397.315C57.7295 397.256 57.7119 397.191 57.7073 397.125C57.7027 397.059 57.711 396.993 57.732 396.931C57.7529 396.868 57.786 396.81 57.8294 396.76C57.8727 396.71 57.9254 396.669 57.9846 396.64C58.0437 396.61 58.1081 396.593 58.174 396.588C58.2399 396.583 58.3061 396.592 58.3688 396.613C58.4315 396.634 58.4894 396.667 58.5393 396.71L68.2494 405.2C68.3373 405.291 68.3865 405.413 68.3865 405.54C68.3865 405.667 68.3373 405.789 68.2494 405.88V405.88C68.2106 405.933 68.1613 405.977 68.1045 406.01C68.0476 406.043 67.9846 406.063 67.9193 406.07V406.07Z" fill="white"/>
<path d="M57.1599 396.67C57.039 396.671 56.9218 396.629 56.8299 396.55L55.2299 395.16C55.1831 395.114 55.1459 395.058 55.1205 394.997C55.0951 394.936 55.082 394.871 55.082 394.805C55.082 394.739 55.0951 394.674 55.1205 394.613C55.1459 394.552 55.1831 394.496 55.2299 394.45V394.45C55.3135 394.351 55.4331 394.288 55.5625 394.277C55.6919 394.266 55.8204 394.307 55.9199 394.39L57.5199 395.78C57.6122 395.875 57.6638 396.002 57.6638 396.135C57.6638 396.268 57.6122 396.395 57.5199 396.49C57.4765 396.544 57.4219 396.588 57.3597 396.62C57.2975 396.651 57.2294 396.668 57.1599 396.67V396.67Z" fill="white"/>
<path d="M131.69 431.69H133.12H133.69C133.823 431.69 133.95 431.637 134.044 431.544C134.138 431.45 134.19 431.323 134.19 431.19C134.19 431.057 134.138 430.93 134.044 430.836C133.95 430.743 133.823 430.69 133.69 430.69H131.69C131.558 430.69 131.431 430.743 131.337 430.836C131.243 430.93 131.19 431.057 131.19 431.19C131.19 431.323 131.243 431.45 131.337 431.544C131.431 431.637 131.558 431.69 131.69 431.69Z" fill="#263238"/>
<path d="M136.337 431.544C136.431 431.637 136.558 431.69 136.69 431.69H136.73H138.73C138.795 431.687 138.858 431.672 138.916 431.645C138.975 431.618 139.027 431.58 139.071 431.532C139.115 431.485 139.149 431.43 139.171 431.369C139.193 431.309 139.203 431.244 139.2 431.18C139.193 431.049 139.136 430.926 139.042 430.835C138.947 430.744 138.822 430.692 138.69 430.69H136.69C136.558 430.69 136.431 430.743 136.337 430.836C136.243 430.93 136.19 431.057 136.19 431.19C136.19 431.323 136.243 431.45 136.337 431.544Z" fill="#263238"/>
<path d="M126.69 431.64L128.69 431.69V431.63C128.81 431.629 128.925 431.585 129.015 431.506C129.105 431.427 129.164 431.318 129.18 431.2C129.182 431.134 129.17 431.069 129.146 431.008C129.122 430.947 129.087 430.891 129.041 430.843C128.996 430.796 128.941 430.758 128.881 430.732C128.821 430.706 128.756 430.691 128.69 430.69L126.69 430.64C126.558 430.64 126.431 430.693 126.337 430.786C126.243 430.88 126.19 431.007 126.19 431.14C126.19 431.273 126.243 431.4 126.337 431.494C126.431 431.587 126.558 431.64 126.69 431.64Z" fill="#263238"/>
<path d="M141.343 431.454C141.436 431.545 141.56 431.598 141.69 431.6H141.71L143.71 431.52C143.776 431.517 143.841 431.502 143.9 431.474C143.96 431.447 144.014 431.408 144.058 431.36C144.103 431.311 144.137 431.255 144.16 431.193C144.183 431.131 144.193 431.066 144.19 431C144.18 430.869 144.121 430.747 144.025 430.658C143.928 430.569 143.802 430.52 143.67 430.52L141.67 430.6C141.54 430.605 141.416 430.662 141.326 430.757C141.236 430.852 141.188 430.979 141.19 431.11C141.195 431.24 141.25 431.363 141.343 431.454Z" fill="#263238"/>
<path d="M121.69 431.42L123.69 431.53L123.7 431.47C123.827 431.476 123.95 431.434 124.047 431.352C124.143 431.271 124.205 431.155 124.22 431.03C124.223 430.966 124.213 430.901 124.191 430.841C124.169 430.78 124.135 430.725 124.091 430.678C124.047 430.63 123.995 430.592 123.936 430.565C123.878 430.538 123.815 430.523 123.75 430.52L121.75 430.42C121.618 430.412 121.487 430.457 121.388 430.545C121.289 430.633 121.228 430.757 121.22 430.89C121.212 431.023 121.257 431.153 121.346 431.252C121.434 431.352 121.558 431.412 121.69 431.42Z" fill="#263238"/>
<path d="M146.337 431.224C146.431 431.317 146.558 431.37 146.69 431.37H146.77C147.44 431.34 148.11 431.3 148.77 431.25C148.835 431.245 148.898 431.227 148.955 431.198C149.013 431.168 149.064 431.128 149.106 431.079C149.147 431.029 149.179 430.972 149.199 430.911C149.219 430.849 149.226 430.784 149.22 430.72C149.21 430.589 149.149 430.467 149.05 430.381C148.95 430.295 148.821 430.252 148.69 430.26L146.69 430.37C146.558 430.37 146.431 430.423 146.337 430.516C146.243 430.61 146.19 430.737 146.19 430.87C146.19 431.003 146.243 431.13 146.337 431.224Z" fill="#263238"/>
<path d="M116.69 431.08L118.69 431.23L118.71 431.18C118.833 431.189 118.954 431.152 119.05 431.076C119.146 431 119.211 430.891 119.23 430.77C119.236 430.704 119.228 430.638 119.208 430.575C119.188 430.513 119.155 430.454 119.113 430.404C119.07 430.354 119.018 430.313 118.959 430.283C118.9 430.253 118.836 430.235 118.77 430.23L116.77 430.08C116.638 430.069 116.506 430.112 116.405 430.198C116.304 430.284 116.241 430.407 116.23 430.54C116.22 430.673 116.262 430.804 116.349 430.905C116.435 431.007 116.558 431.069 116.69 431.08Z" fill="#263238"/>
<path d="M151.337 430.904C151.431 430.997 151.558 431.05 151.69 431.05H151.79L153.79 430.9C153.855 430.894 153.917 430.875 153.975 430.844C154.032 430.814 154.082 430.772 154.123 430.722C154.164 430.672 154.194 430.614 154.213 430.552C154.231 430.49 154.237 430.424 154.23 430.36C154.225 430.294 154.207 430.23 154.177 430.171C154.148 430.113 154.106 430.06 154.056 430.018C154.006 429.975 153.948 429.942 153.885 429.922C153.822 429.902 153.756 429.895 153.69 429.9L151.69 430.05C151.558 430.05 151.431 430.103 151.337 430.196C151.243 430.29 151.19 430.417 151.19 430.55C151.19 430.683 151.243 430.81 151.337 430.904Z" fill="#263238"/>
<path d="M111.75 430.59C112.41 430.67 113.08 430.74 113.75 430.8H113.81C113.876 430.803 113.942 430.792 114.003 430.77C114.065 430.747 114.122 430.712 114.17 430.668C114.218 430.623 114.257 430.57 114.285 430.51C114.312 430.45 114.328 430.386 114.33 430.32C114.334 430.255 114.325 430.189 114.304 430.128C114.282 430.066 114.249 430.009 114.205 429.961C114.161 429.913 114.108 429.873 114.049 429.846C113.99 429.818 113.926 429.803 113.86 429.8L111.86 429.59C111.795 429.583 111.728 429.589 111.665 429.607C111.601 429.625 111.542 429.656 111.491 429.698C111.439 429.739 111.396 429.79 111.364 429.848C111.333 429.906 111.313 429.969 111.305 430.035C111.298 430.101 111.304 430.167 111.322 430.231C111.341 430.294 111.372 430.353 111.413 430.405C111.454 430.456 111.505 430.499 111.563 430.531C111.621 430.563 111.685 430.583 111.75 430.59Z" fill="#263238"/>
<path d="M156.321 430.514C156.414 430.598 156.535 430.643 156.66 430.64H156.72L158.72 430.45C158.785 430.444 158.847 430.425 158.905 430.394C158.962 430.364 159.012 430.322 159.053 430.272C159.094 430.222 159.125 430.164 159.143 430.102C159.161 430.04 159.167 429.974 159.16 429.91C159.154 429.844 159.135 429.78 159.104 429.722C159.073 429.664 159.03 429.612 158.979 429.57C158.928 429.528 158.869 429.497 158.806 429.478C158.743 429.459 158.676 429.453 158.61 429.46L156.61 429.64C156.545 429.646 156.481 429.665 156.422 429.697C156.364 429.728 156.312 429.77 156.271 429.821C156.229 429.872 156.198 429.931 156.179 429.995C156.16 430.058 156.153 430.124 156.16 430.19C156.171 430.315 156.228 430.431 156.321 430.514Z" fill="#263238"/>
<path d="M108.72 430.23H108.78L108.76 430.18C108.885 430.193 109.01 430.156 109.107 430.078C109.205 429.999 109.267 429.885 109.28 429.76C109.294 429.635 109.257 429.511 109.178 429.413C109.099 429.315 108.985 429.253 108.86 429.24L106.86 428.97C106.729 428.953 106.597 428.987 106.491 429.065C106.384 429.143 106.313 429.26 106.29 429.39C106.278 429.522 106.315 429.653 106.395 429.758C106.475 429.864 106.591 429.936 106.72 429.96L108.72 430.23Z" fill="#263238"/>
<path d="M161.287 430.021C161.378 430.104 161.497 430.15 161.62 430.15H161.69L163.69 429.93C163.756 429.922 163.819 429.901 163.877 429.869C163.935 429.837 163.985 429.793 164.026 429.741C164.067 429.689 164.097 429.63 164.115 429.566C164.133 429.502 164.138 429.436 164.13 429.37C164.122 429.304 164.102 429.241 164.069 429.183C164.037 429.126 163.994 429.075 163.942 429.034C163.889 428.993 163.83 428.963 163.766 428.945C163.703 428.927 163.636 428.922 163.57 428.93L161.57 429.15C161.439 429.165 161.32 429.231 161.237 429.334C161.155 429.437 161.116 429.569 161.13 429.7C161.14 429.823 161.196 429.937 161.287 430.021Z" fill="#263238"/>
<path d="M293.45 76.45L231.19 83.52L246.92 95.24L293.45 76.45Z" fill="white"/>
<path d="M246.92 95.74C246.814 95.7409 246.709 95.7095 246.62 95.65L230.9 83.92C230.819 83.8609 230.758 83.7788 230.724 83.6842C230.69 83.5897 230.685 83.4872 230.71 83.39C230.735 83.2924 230.79 83.2052 230.867 83.1406C230.944 83.076 231.04 83.0373 231.14 83.03L293.39 76.03C293.511 76.0169 293.633 76.0482 293.732 76.1181C293.831 76.1881 293.902 76.2918 293.93 76.41C293.963 76.5254 293.952 76.649 293.898 76.7563C293.844 76.8637 293.752 76.947 293.64 76.99L247.11 95.79C247.045 95.7835 246.981 95.7666 246.92 95.74V95.74ZM232.51 83.88L247 94.68L289.87 77.36L232.51 83.88Z" fill="#263238"/>
<path d="M246.921 95.24L246.801 107.95L293.451 76.45L246.921 95.24Z" fill="white"/>
<path d="M246.801 108.45C246.72 108.45 246.641 108.43 246.571 108.39C246.491 108.347 246.423 108.284 246.376 108.207C246.329 108.129 246.303 108.041 246.301 107.95L246.421 95.24C246.421 95.1412 246.451 95.0449 246.506 94.963C246.561 94.8812 246.639 94.8175 246.731 94.78L293.261 76C293.375 75.951 293.504 75.9476 293.621 75.9903C293.738 76.033 293.835 76.1187 293.891 76.23C293.949 76.3389 293.965 76.4656 293.936 76.5857C293.906 76.7057 293.833 76.8106 293.731 76.88L247.081 108.37C246.999 108.426 246.9 108.454 246.801 108.45ZM247.421 95.58L247.311 107L289.241 78.69L247.421 95.58Z" fill="#263238"/>
<path d="M246.801 107.95L254.101 97.65L293.451 76.45L246.801 107.95Z" fill="white"/>
<path d="M246.8 108.45C246.735 108.451 246.67 108.438 246.61 108.412C246.549 108.386 246.495 108.348 246.45 108.3C246.368 108.216 246.318 108.106 246.309 107.989C246.3 107.872 246.332 107.756 246.4 107.66L253.69 97.36C253.735 97.2976 253.793 97.2463 253.86 97.21L293.21 76C293.324 75.9399 293.456 75.9251 293.581 75.9585C293.705 75.9919 293.812 76.071 293.88 76.18C293.944 76.2918 293.964 76.4232 293.936 76.5488C293.908 76.6744 293.835 76.7852 293.73 76.86L247.08 108.35C247 108.412 246.902 108.447 246.8 108.45V108.45ZM254.44 98L248.8 106L284.87 81.64L254.44 98Z" fill="#263238"/>
<path d="M254.101 97.65L274.601 112.97L293.451 76.45L254.101 97.65Z" fill="white"/>
<path d="M274.6 113.47C274.492 113.472 274.386 113.437 274.3 113.37L253.8 98.05C253.731 98.0009 253.676 97.9343 253.641 97.857C253.606 97.7797 253.592 97.6944 253.6 97.61C253.606 97.5267 253.633 97.4462 253.678 97.3762C253.724 97.3062 253.786 97.249 253.86 97.21L293.21 76C293.305 75.9513 293.412 75.9329 293.518 75.9472C293.623 75.9615 293.722 76.0078 293.8 76.08C293.877 76.1556 293.927 76.2538 293.943 76.3601C293.959 76.4663 293.941 76.575 293.89 76.67L275.05 113.2C275.016 113.266 274.968 113.323 274.909 113.368C274.851 113.413 274.782 113.444 274.71 113.46L274.6 113.47ZM255 97.72L274.41 112.22L292.24 77.66L255 97.72Z" fill="#263238"/>
<path d="M263.542 386.96L163.912 402.51C157.272 403.51 150.502 397.99 148.802 390.09L97.062 150.03C94.062 138.71 104.252 132.68 110.892 131.64L205.632 118.3C212.272 117.3 219.032 122.82 220.742 130.72L279.132 370.39C280.832 378.3 276.742 384.99 263.542 386.96Z" fill="white"/>
<path d="M162.312 403.14C156.002 403.14 149.932 397.68 148.312 390.2L96.5724 150.13C96.0079 148.256 95.8586 146.282 96.1349 144.344C96.4112 142.406 97.1065 140.552 98.1724 138.91C101.292 134.15 106.932 131.75 110.822 131.15L205.562 117.8C212.442 116.73 219.472 122.48 221.222 130.62L279.612 370.28C280.062 371.967 280.15 373.73 279.871 375.454C279.592 377.177 278.952 378.822 277.992 380.28C275.432 383.98 270.602 386.38 263.612 387.43L163.992 402.98C163.438 403.079 162.876 403.132 162.312 403.14V403.14ZM207.232 118.67C206.72 118.671 206.208 118.711 205.702 118.79L110.962 132.14C107.292 132.71 101.962 134.97 99.0124 139.46C98.021 140.988 97.3758 142.714 97.1218 144.518C96.8679 146.321 97.0114 148.158 97.5424 149.9L149.292 389.98C150.942 397.62 157.462 402.98 163.832 401.98L263.462 386.39C270.172 385.39 274.782 383.12 277.162 379.66C278.048 378.312 278.637 376.792 278.892 375.199C279.147 373.606 279.062 371.978 278.642 370.42L220.252 130.84C218.742 123.81 213.092 118.67 207.232 118.67V118.67Z" fill="#263238"/>
<path d="M270.352 384.24L170.743 399.79C164.103 400.79 157.343 395.26 155.643 387.36L103.873 147.3C102.173 139.4 106.173 132.16 112.813 131.12L212.443 115.57C219.083 114.57 225.853 120.1 227.553 128L279.292 368.06C281.002 375.96 276.992 383.2 270.352 384.24Z" fill="#263238"/>
<path d="M169.132 400.39C162.812 400.39 156.742 394.93 155.132 387.45L103.382 147.39C102.898 145.355 102.829 143.243 103.182 141.181C103.534 139.119 104.299 137.149 105.432 135.39C106.26 134.146 107.335 133.085 108.591 132.274C109.847 131.464 111.257 130.921 112.732 130.68L212.362 115.13C219.252 114.05 226.282 119.8 228.042 127.94L279.742 367.94C280.243 369.983 280.324 372.106 279.98 374.18C279.636 376.255 278.875 378.239 277.742 380.01C276.912 381.255 275.834 382.315 274.577 383.125C273.319 383.935 271.909 384.478 270.432 384.72L170.802 400.27C170.25 400.355 169.691 400.396 169.132 400.39V400.39ZM214.052 115.93C213.54 115.931 213.028 115.971 212.522 116.05L112.892 131.6C111.55 131.82 110.267 132.314 109.125 133.052C107.982 133.791 107.004 134.757 106.252 135.89C105.192 137.547 104.478 139.402 104.153 141.342C103.828 143.282 103.899 145.268 104.362 147.18L156.102 387.24C157.752 394.87 164.272 400.24 170.652 399.24L270.282 383.68C271.623 383.461 272.905 382.966 274.046 382.228C275.186 381.49 276.162 380.524 276.912 379.39C277.977 377.735 278.695 375.881 279.021 373.94C279.348 372 279.277 370.013 278.812 368.1L227.062 128.1C225.552 121.1 219.902 115.95 214.062 115.95L214.052 115.93Z" fill="#263238"/>
<path d="M270.842 355.72L158.372 373.27L111.282 154.78L223.742 137.22L270.842 355.72Z" fill="#00B43F"/>
<path d="M158.373 373.77C158.26 373.77 158.151 373.732 158.063 373.661C157.976 373.59 157.916 373.491 157.893 373.38L110.793 154.88C110.766 154.746 110.791 154.607 110.863 154.49C110.902 154.434 110.953 154.387 111.011 154.351C111.07 154.315 111.135 154.291 111.203 154.28L223.663 136.73C223.789 136.712 223.918 136.742 224.024 136.814C224.129 136.886 224.204 136.996 224.233 137.12L271.333 355.61C271.347 355.677 271.348 355.747 271.334 355.814C271.32 355.881 271.293 355.945 271.253 356C271.174 356.111 271.056 356.186 270.923 356.21L158.453 373.77H158.373ZM111.883 155.19L158.743 372.71L270.223 355.31L223.353 137.79L111.883 155.19Z" fill="#263238"/>
<path d="M175.212 204.95C176.362 210.46 175.652 215.23 173.652 215.6C171.652 215.97 169.102 211.8 167.962 206.29C166.822 200.78 167.522 196.01 169.522 195.64C171.522 195.27 174.072 199.39 175.212 204.95Z" fill="#263238"/>
<path d="M199.912 200.33C201.052 205.84 200.352 210.61 198.342 210.99C196.332 211.37 193.792 207.19 192.652 201.68C191.512 196.17 192.212 191.4 194.212 191.03C196.212 190.66 198.742 194.82 199.912 200.33Z" fill="#263238"/>
<path d="M187.282 249.2C175.462 249.2 163.812 241.95 156.562 229.68C156.358 229.229 156.329 228.718 156.48 228.247C156.631 227.775 156.951 227.377 157.38 227.128C157.808 226.879 158.313 226.798 158.797 226.9C159.282 227.002 159.711 227.28 160.002 227.68C167.462 240.3 179.912 247.03 191.762 244.83C203.292 242.7 212.092 232.33 214.162 218.43C214.201 218.168 214.291 217.915 214.427 217.687C214.564 217.46 214.744 217.261 214.957 217.103C215.17 216.944 215.412 216.829 215.669 216.765C215.927 216.7 216.195 216.687 216.457 216.725C216.72 216.764 216.972 216.854 217.2 216.99C217.428 217.127 217.627 217.307 217.785 217.52C217.943 217.733 218.058 217.975 218.123 218.233C218.188 218.49 218.201 218.758 218.162 219.02C215.832 234.64 205.772 246.31 192.532 248.77C190.799 249.074 189.042 249.217 187.282 249.2Z" fill="#263238"/>
<path d="M138.886 235.652L133.764 246.126L134.662 246.566L139.784 236.091L138.886 235.652Z" fill="white"/>
<path d="M181.843 147.875L143.5 226.282L144.398 226.721L182.741 148.315L181.843 147.875Z" fill="white"/>
<path d="M169.866 148.585L153.819 179.318L154.706 179.781L170.752 149.048L169.866 148.585Z" fill="white"/>
<path d="M245.154 322.586L227.354 357.792L228.247 358.244L246.046 323.037L245.154 322.586Z" fill="white"/>
<path d="M253.406 306.317L247.874 317.259L248.766 317.71L254.298 306.769L253.406 306.317Z" fill="white"/>
<path d="M180.893 133.58L149.823 138.39C149.162 138.427 148.512 138.214 148 137.793C147.489 137.373 147.155 136.776 147.063 136.12V136.12C146.963 135.833 146.922 135.53 146.94 135.227C146.958 134.924 147.035 134.627 147.168 134.354C147.301 134.081 147.486 133.837 147.714 133.635C147.941 133.434 148.206 133.279 148.493 133.18L148.693 133.12L179.743 128.39C180.404 128.354 181.054 128.567 181.565 128.987C182.076 129.408 182.411 130.005 182.503 130.66V130.66C182.684 131.245 182.626 131.878 182.341 132.42C182.056 132.962 181.567 133.368 180.983 133.55L180.893 133.58Z" fill="white"/>
<path d="M149.532 138.95C148.959 138.885 148.412 138.676 147.942 138.343C147.471 138.01 147.093 137.563 146.841 137.044C146.59 136.525 146.474 135.951 146.504 135.375C146.533 134.799 146.708 134.24 147.012 133.75C147.195 133.482 147.432 133.254 147.707 133.082C147.982 132.91 148.291 132.797 148.612 132.75L179.742 127.86C180.527 127.811 181.303 128.056 181.917 128.548C182.531 129.04 182.939 129.743 183.062 130.52C183.165 130.948 183.179 131.391 183.105 131.824C183.032 132.258 182.871 132.671 182.632 133.04C182.448 133.309 182.209 133.537 181.932 133.709C181.655 133.881 181.345 133.994 181.022 134.04V134.04L149.942 138.89C149.807 138.921 149.67 138.941 149.532 138.95V138.95ZM180.072 128.84H179.852L148.742 133.7C148.361 133.772 148.023 133.991 147.802 134.31C147.639 134.568 147.53 134.856 147.482 135.157C147.434 135.457 147.447 135.765 147.522 136.06C147.593 136.588 147.856 137.071 148.259 137.417C148.663 137.764 149.18 137.95 149.712 137.94L180.792 133.09C180.982 133.056 181.162 132.984 181.322 132.877C181.482 132.771 181.618 132.632 181.722 132.47C182.052 131.92 182.15 131.261 181.995 130.639C181.839 130.016 181.443 129.481 180.892 129.15C180.63 128.997 180.342 128.892 180.042 128.84H180.072Z" fill="#263238"/>
<path d="M220.742 373.68C220.172 371.05 217.922 369.19 215.742 369.54C213.562 369.89 212.202 372.3 212.742 374.93C213.282 377.56 215.562 379.42 217.742 379.07C219.922 378.72 221.302 376.31 220.742 373.68Z" fill="white"/>
<path d="M217.223 379.61C214.963 379.61 212.793 377.68 212.223 375.04C212.05 374.314 212.027 373.56 212.154 372.825C212.281 372.089 212.556 371.387 212.963 370.76C213.262 370.306 213.654 369.919 214.112 369.625C214.57 369.33 215.085 369.135 215.623 369.05C218.093 368.66 220.623 370.69 221.223 373.58C221.397 374.304 221.422 375.056 221.297 375.79C221.171 376.525 220.898 377.225 220.493 377.85C220.189 378.304 219.795 378.691 219.336 378.987C218.876 379.283 218.361 379.481 217.823 379.57C217.624 379.599 217.423 379.612 217.223 379.61ZM216.223 370H215.743C215.339 370.068 214.953 370.217 214.609 370.439C214.265 370.66 213.97 370.95 213.743 371.29C213.416 371.807 213.196 372.384 213.096 372.987C212.997 373.589 213.019 374.206 213.163 374.8C213.673 377.17 215.683 378.86 217.633 378.55C218.037 378.487 218.425 378.339 218.769 378.117C219.113 377.895 219.408 377.603 219.633 377.26C219.964 376.748 220.187 376.173 220.286 375.571C220.386 374.969 220.361 374.352 220.213 373.76V373.76C220.054 372.78 219.576 371.88 218.852 371.2C218.129 370.52 217.201 370.098 216.213 370H216.223Z" fill="#263238"/>
<path d="M207.363 294.12L161.443 302.03C158.443 302.55 156.443 305.03 156.923 307.55L162.843 336.06L163.003 336.8L166.093 351.7L174.743 339.52L215.363 332.52C218.363 332 220.363 329.52 219.873 327.01L213.743 297.75C213.253 295.23 210.383 293.6 207.363 294.12Z" fill="white"/>
<path d="M165.832 352.93L156.432 307.65C156.308 307.039 156.311 306.408 156.44 305.798C156.569 305.187 156.821 304.61 157.182 304.1C157.672 303.417 158.293 302.839 159.009 302.4C159.725 301.96 160.521 301.668 161.352 301.54L207.282 293.63C210.552 293.07 213.692 294.87 214.282 297.63L220.352 326.89C220.475 327.5 220.472 328.128 220.345 328.736C220.218 329.345 219.969 329.921 219.612 330.43C219.12 331.115 218.498 331.694 217.78 332.135C217.063 332.577 216.264 332.871 215.432 333L175.022 339.95L165.832 352.93ZM208.492 294.53C208.157 294.53 207.822 294.56 207.492 294.62L161.562 302.53C160.862 302.635 160.19 302.878 159.586 303.245C158.981 303.613 158.457 304.097 158.042 304.67C157.76 305.068 157.563 305.518 157.461 305.995C157.36 306.471 157.357 306.963 157.452 307.44L166.392 350.44L174.472 339.03L215.292 332.03C216.68 331.801 217.92 331.032 218.742 329.89C219.024 329.491 219.223 329.04 219.326 328.562C219.429 328.084 219.435 327.59 219.342 327.11L213.262 297.86C212.882 295.89 210.832 294.53 208.492 294.53V294.53Z" fill="#263238"/>
<path d="M204.073 311.25C204.103 310.855 204.072 310.457 203.983 310.07V309.85C203.203 306.07 198.903 303.65 194.393 304.42C190.843 305.03 188.223 307.42 187.643 310.29C186.65 308.996 185.314 308.008 183.785 307.438C182.257 306.869 180.6 306.741 179.003 307.07C174.493 307.85 171.473 311.54 172.253 315.31C172.253 315.31 172.133 318.54 179.793 323.23C186.083 327.09 191.393 330.23 191.493 330.1C191.623 330.17 195.443 325.5 199.933 319.77C201.684 317.717 203.013 315.339 203.843 312.77C203.95 312.425 204.024 312.07 204.063 311.71C204.055 311.557 204.059 311.403 204.073 311.25V311.25Z" fill="#00B43F"/>
<path d="M191.412 330.59C191.345 330.586 191.28 330.565 191.222 330.53V330.53C190.292 330.22 187.712 328.73 179.482 323.68C172.202 319.21 171.732 315.93 171.702 315.39C171.535 314.515 171.545 313.616 171.733 312.745C171.92 311.874 172.28 311.049 172.792 310.32C173.51 309.33 174.417 308.492 175.461 307.853C176.504 307.215 177.664 306.789 178.872 306.6C180.398 306.309 181.973 306.398 183.457 306.858C184.941 307.319 186.289 308.137 187.382 309.24C187.971 307.839 188.914 306.615 190.119 305.688C191.323 304.761 192.747 304.162 194.252 303.95C199.022 303.13 203.582 305.74 204.422 309.77V309.93C204.524 310.379 204.561 310.841 204.532 311.3C204.539 311.459 204.522 311.617 204.482 311.77C204.44 312.16 204.363 312.545 204.252 312.92C203.397 315.544 202.038 317.976 200.252 320.08C194.422 327.54 192.522 329.81 191.772 330.41C191.739 330.458 191.694 330.496 191.641 330.521C191.588 330.545 191.53 330.555 191.472 330.55L191.412 330.59ZM180.652 307.39C180.119 307.387 179.587 307.434 179.062 307.53C177.984 307.689 176.948 308.063 176.017 308.63C175.086 309.197 174.278 309.945 173.642 310.83C173.203 311.454 172.895 312.16 172.735 312.906C172.575 313.651 172.567 314.422 172.712 315.17V315.29C172.712 315.29 172.802 318.34 180.012 322.77C185.792 326.31 190.272 328.94 191.352 329.49C192.172 328.61 195.402 324.65 199.492 319.42C201.2 317.414 202.501 315.094 203.322 312.59C203.418 312.264 203.485 311.929 203.522 311.59V311.18C203.549 310.845 203.525 310.508 203.452 310.18C203.442 310.127 203.442 310.073 203.452 310.02C202.712 306.43 198.672 304.17 194.452 304.91C191.212 305.46 188.662 307.66 188.112 310.38C188.099 310.444 188.073 310.505 188.036 310.559C188 310.613 187.952 310.659 187.897 310.695C187.842 310.73 187.781 310.754 187.716 310.765C187.652 310.777 187.586 310.775 187.522 310.76C187.46 310.75 187.4 310.726 187.347 310.692C187.293 310.658 187.248 310.613 187.212 310.56C186.452 309.545 185.46 308.728 184.318 308.176C183.177 307.625 181.919 307.355 180.652 307.39Z" fill="#263238"/>
</svg>
